<svg height="512" viewBox="0 0 512 512" width="512" xmlns="http://www.w3.org/2000/svg"><path d="m213.333333 0c117.821654 0 213.333334 95.51168 213.333334 213.333333 0 117.820374-95.51168 213.333334-213.333334 213.333334-117.820373 0-213.333333-95.51296-213.333333-213.333334 0-117.821653 95.51296-213.333333 213.333333-213.333333zm21.380054 192h-42.666667v128h42.666667zm-21.163307-90.666667c-15.55392 0-26.836693 11.220267-26.836693 26.370774 0 15.763413 10.985386 26.96256 26.836693 26.96256 15.234987 0 26.49664-11.199147 26.49664-26.666667 0-15.4464-11.261653-26.666667-26.49664-26.666667z" fill-rule="evenodd" transform="translate(42.666667 42.666667)"/></svg>