<svg viewBox="0 0 20 20" xmlns="http://www.w3.org/2000/svg"><path d="m0 0h20v20h-20z" fill="none"/><path d="m14.48 11.06-7.07-7.07 1.5-1.5c.5-.56 2.3-.47 3.51.32 1.21.8 1.43 1.28 2.91 2.1 1.18.64 2.45 1.26 4.45.85zm-.71.71-7.07-7.07-1.77 1.77c-.39.39-.39 1.02 0 1.41l1.06 1.06c.39.39.39 1.03 0 1.42-.6.6-1.43 1.11-2.21 1.69-.35.26-.7.53-1.01.84-1.34 1.34-2.37 3.19-1.37 4.18.99 1 2.84-.03 4.18-1.36.31-.31.58-.66.85-1.02.57-.78 1.08-1.61 1.69-2.21.39-.39 1.02-.39 1.41 0l1.06 1.06c.39.39 1.02.39 1.41 0z"/></svg>