<?xml version="1.0" encoding="UTF-8"?>
<svg version="1.1" xmlns="http://www.w3.org/2000/svg" width="1000" height="1000">
<path d="M0 0 C30.03 0 60.06 0 91 0 C91.33 0.66 91.66 1.32 92 2 C94.78336238 2.43106693 94.78336238 2.43106693 98 2.5625 C103.90362954 2.90362954 103.90362954 2.90362954 105 4 C106.66204487 4.20775561 108.33029491 4.36718255 110 4.5 C114.88888889 4.88888889 114.88888889 4.88888889 116 6 C117.32781878 6.20604085 118.66295895 6.3662959 120 6.5 C123.88888889 6.88888889 123.88888889 6.88888889 125 8 C126.32781878 8.20604085 127.66295895 8.3662959 129 8.5 C132.88888889 8.88888889 132.88888889 8.88888889 134 10 C135.03125 10.144375 136.0625 10.28875 137.125 10.4375 C140.94345392 10.9917917 144.32219105 11.87414012 148 13 C148 13.66 148 14.32 148 15 C148.81082031 14.94457031 149.62164063 14.88914063 150.45703125 14.83203125 C154.88300443 15.04186239 158.52758565 16.23777313 162.6875 17.6875 C163.88234009 18.09415894 163.88234009 18.09415894 165.10131836 18.5090332 C170.41223557 20.35117847 175.51570606 22.4653543 180.5859375 24.8984375 C184.29712542 26.59189218 188.10809194 27.78776634 192 29 C192 29.66 192 30.32 192 31 C193.20076172 31.11794922 193.20076172 31.11794922 194.42578125 31.23828125 C199.05915542 32.22572165 202.94836136 34.11483591 207.1875 36.1875 C208.44300659 36.7916272 208.44300659 36.7916272 209.72387695 37.40795898 C215.92499113 40.41472325 222.01928042 43.57284609 228 47 C228 47.66 228 48.32 228 49 C228.55171875 49.11214844 229.1034375 49.22429687 229.671875 49.33984375 C232.40065211 50.11360773 234.72772943 51.26817694 237.25 52.5625 C238.14203125 53.01753906 239.0340625 53.47257812 239.953125 53.94140625 C240.62859375 54.29074219 241.3040625 54.64007813 242 55 C242 55.66 242 56.32 242 57 C242.58789307 57.12004395 243.17578613 57.24008789 243.78149414 57.36376953 C246.06370016 58.01826814 247.54697303 58.84353729 249.49609375 60.1796875 C250.13740234 60.61410156 250.77871094 61.04851562 251.43945312 61.49609375 C252.09880859 61.95113281 252.75816406 62.40617187 253.4375 62.875 C254.7479854 63.7692742 256.05916908 64.66252609 257.37109375 65.5546875 C257.98968262 65.9784668 258.60827148 66.40224609 259.24560547 66.83886719 C260.78083884 67.85494983 262.37342536 68.78326755 263.97265625 69.6953125 C264.64167969 70.12585938 265.31070313 70.55640625 266 71 C266 71.66 266 72.32 266 73 C268.475 73.99 268.475 73.99 271 75 C271 75.66 271 76.32 271 77 C271.721875 77.2475 272.44375 77.495 273.1875 77.75 C276.27606582 79.12269592 278.51011418 80.72353296 281 83 C281 83.66 281 84.32 281 85 C281.66 85 282.32 85 283 85 C283 85.66 283 86.32 283 87 C283.99 87 284.98 87 286 87 C286 87.66 286 88.32 286 89 C286.8353125 89.37125 286.8353125 89.37125 287.6875 89.75 C290.42410913 91.22924818 292.67650869 92.93467439 295 95 C295 95.66 295 96.32 295 97 C295.66 97 296.32 97 297 97 C297 97.66 297 98.32 297 99 C297.66 99 298.32 99 299 99 C299 99.66 299 100.32 299 101 C299.66 101 300.32 101 301 101 C301 101.66 301 102.32 301 103 C301.66 103 302.32 103 303 103 C303 103.66 303 104.32 303 105 C303.66 105 304.32 105 305 105 C305 105.66 305 106.32 305 107 C305.66 107 306.32 107 307 107 C307 107.66 307 108.32 307 109 C307.66 109 308.32 109 309 109 C309 109.66 309 110.32 309 111 C309.66 111 310.32 111 311 111 C311 111.66 311 112.32 311 113 C311.66 113 312.32 113 313 113 C313 113.66 313 114.32 313 115 C313.66 115 314.32 115 315 115 C316.9453125 117.1171875 316.9453125 117.1171875 319.125 119.875 C319.84945312 120.77992188 320.57390625 121.68484375 321.3203125 122.6171875 C323 125 323 125 323 127 C323.66 127 324.32 127 325 127 C325 127.66 325 128.32 325 129 C325.66 129 326.32 129 327 129 C328.5078125 130.6796875 328.5078125 130.6796875 330.125 132.875 C330.66382813 133.59429687 331.20265625 134.31359375 331.7578125 135.0546875 C333 137 333 137 333 139 C333.66 139 334.32 139 335 139 C339 144.41176471 339 144.41176471 339 147 C339.66 147 340.32 147 341 147 C342.26171875 148.6171875 342.26171875 148.6171875 343.6875 150.875 C345.89902693 154.31635165 348.17691174 157.6768443 350.5625 161 C353.22443196 164.78029287 355.5278034 168.61620962 357.703125 172.69140625 C359.10061158 175.17910074 360.65898864 177.5067285 362.25 179.875 C365.99040846 185.65711614 368.85859993 191.76090101 371.71582031 198.01123047 C373.92527827 202.82921592 376.30637832 207.48056484 378.93188477 212.08618164 C381.11155794 215.99165775 382 218.4930645 382 223 C382.66 223 383.32 223 384 223 C385.60355101 226.50776784 386.22036864 229.14354879 386 233 C386.66 233 387.32 233 388 233 C388.20496094 233.71027344 388.40992188 234.42054688 388.62109375 235.15234375 C388.89050781 236.07144531 389.15992188 236.99054688 389.4375 237.9375 C389.83775391 239.31228516 389.83775391 239.31228516 390.24609375 240.71484375 C390.79026051 242.9402493 390.79026051 242.9402493 392 244 C392.04063832 245.66617115 392.042721 247.33388095 392 249 C392.66 249 393.32 249 394 249 C394 250.98 394 252.96 394 255 C394.66 255 395.32 255 396 255 C396.27263672 256.37671875 396.27263672 256.37671875 396.55078125 257.78125 C398.10617751 265.71556429 398.10617751 265.71556429 400.625 273.375 C402.14420727 277.38018281 402.55393284 280.76236196 403 285 C403.33 285.33 403.66 285.66 404 286 C404.31923492 288.0572917 404.51161352 290.11613521 404.71875 292.1875 C404.81998043 294.0167533 404.81998043 294.0167533 406 295 C406.20839015 296.64107242 406.36751725 298.28856293 406.5 299.9375 C406.75214943 303.60557465 406.75214943 303.60557465 408 307 C408.31432523 310.11269291 408.51089874 313.22617578 408.71875 316.34765625 C408.71051998 318.92005405 408.71051998 318.92005405 410 320 C410.23727795 323.12227655 410.39553656 326.23680294 410.51757812 329.36523438 C410.67721566 333.26932503 410.67721566 333.26932503 412.00949097 336.88336182 C413.26132192 339.55842393 413.24057656 341.5543091 413.22705078 344.50292969 C413.22689972 345.60376892 413.22674866 346.70460815 413.22659302 347.83880615 C413.21627045 349.02121887 413.20594788 350.20363159 413.1953125 351.421875 C413.19106766 353.24455902 413.19106766 353.24455902 413.18673706 355.10406494 C413.17553954 358.98614335 413.15043534 362.86799129 413.125 366.75 C413.11496966 369.38150709 413.10584391 372.01301779 413.09765625 374.64453125 C413.07560157 381.09643284 413.04212804 387.54819995 413 394 C412.01 394.495 412.01 394.495 411 395 C410.7137306 397.69152264 410.53256862 400.30097868 410.4375 403 C410.11929275 410.88070725 410.11929275 410.88070725 409 412 C408.79016721 414.14204311 408.63176615 416.28924113 408.5 418.4375 C408.11013767 424.77972466 408.11013767 424.77972466 407 427 C406.68954474 429.59143905 406.49026088 432.18371732 406.28125 434.78515625 C406 437 406 437 405 438 C404.76807135 439.51469448 404.58784762 441.03754562 404.4375 442.5625 C404.35371094 443.38878906 404.26992188 444.21507812 404.18359375 445.06640625 C404.12300781 445.70449219 404.06242188 446.34257813 404 447 C403.34 447 402.68 447 402 447 C402 449.64 402 452.28 402 455 C401.34 455 400.68 455 400 455 C400 457.64 400 460.28 400 463 C399.34 463 398.68 463 398 463 C398.061875 464.5159375 398.061875 464.5159375 398.125 466.0625 C397.99426157 470.18076052 397.26749214 473.11830533 396 477 C395.34 477 394.68 477 394 477 C394.04125 477.680625 394.0825 478.36125 394.125 479.0625 C393.97450035 482.59924168 393.05624147 485.63323033 392 489 C391.34 489 390.68 489 390 489 C390.061875 490.0828125 390.061875 490.0828125 390.125 491.1875 C389.99078695 494.20729369 389.24829381 496.26935729 388 499 C387.34 499 386.68 499 386 499 C386.061875 500.08861328 386.061875 500.08861328 386.125 501.19921875 C385.98776646 504.27410769 385.32324958 506.04847538 384 508.8125 C383.54882812 509.76382812 383.09765625 510.71515625 382.6328125 511.6953125 C381.42852895 514.13269022 380.21582337 516.56455863 378.9921875 518.9921875 C378.64285156 519.68594482 378.29351563 520.37970215 377.93359375 521.09448242 C377.24598222 522.45400587 376.5535391 523.81110028 375.85546875 525.1652832 C374.17790402 528.45866436 372.68689425 531.72274654 371.42578125 535.19921875 C370.3250283 538.23329818 369.0485272 540.88914052 367.3125 543.625 C365.15074358 547.10307345 363.0776908 550.61060219 361.07910156 554.18530273 C357.4072103 560.73985791 353.396996 566.90900343 349 573 C347.45426628 575.22649727 345.91284894 577.45558888 344.375 579.6875 C343.6109947 580.78928281 342.84668188 581.89085246 342.08203125 582.9921875 C340.84210778 584.78344654 339.60808886 586.5788518 338.38671875 588.3828125 C337.3067366 589.95659179 336.16205353 591.48580903 335 593 C334.34 593 333.68 593 333 593 C332.7525 593.53625 332.505 594.0725 332.25 594.625 C330.69347463 597.5823982 328.96564327 600.29724051 327 603 C326.34 603 325.68 603 325 603 C324.731875 603.57234375 324.46375 604.1446875 324.1875 604.734375 C322.95867364 607.07884634 321.57477824 609.12404938 320 611.25 C319.2265625 612.30960938 319.2265625 612.30960938 318.4375 613.390625 C317.963125 613.92171875 317.48875 614.4528125 317 615 C316.34 615 315.68 615 315 615 C315 615.66 315 616.32 315 617 C314.34 617 313.68 617 313 617 C313 617.66 313 618.32 313 619 C312.34 619 311.68 619 311 619 C311 619.66 311 620.32 311 621 C310.34 621 309.68 621 309 621 C309 621.66 309 622.32 309 623 C308.34 623 307.68 623 307 623 C307 623.66 307 624.32 307 625 C306.34 625 305.68 625 305 625 C305 625.66 305 626.32 305 627 C304.34 627 303.68 627 303 627 C303 627.66 303 628.32 303 629 C302.34 629 301.68 629 301 629 C301 629.66 301 630.32 301 631 C300.34 631 299.68 631 299 631 C299 631.66 299 632.32 299 633 C298.34 633 297.68 633 297 633 C297 633.66 297 634.32 297 635 C296.34 635 295.68 635 295 635 C295 635.66 295 636.32 295 637 C293.5390625 638.5078125 293.5390625 638.5078125 291.625 640.125 C290.68527344 640.93324219 290.68527344 640.93324219 289.7265625 641.7578125 C288 643 288 643 286 643 C286 643.66 286 644.32 286 645 C285.01 645 284.02 645 283 645 C283 645.66 283 646.32 283 647 C282.34 647 281.68 647 281 647 C281 647.66 281 648.32 281 649 C279.35 649.66 277.7 650.32 276 651 C276 651.66 276 652.32 276 653 C275.01 653 274.02 653 273 653 C273 653.66 273 654.32 273 655 C271.19983318 656.50457293 269.33238578 657.92911713 267.4375 659.3125 C266.8904541 659.71331787 266.3434082 660.11413574 265.77978516 660.52709961 C264.19009279 661.68962974 262.59514534 662.84496343 261 664 C260.24589844 664.56203125 259.49179687 665.1240625 258.71484375 665.703125 C254.25269397 669 254.25269397 669 252 669 C252 669.66 252 670.32 252 671 C251.51273438 671.25652344 251.02546875 671.51304687 250.5234375 671.77734375 C244.78812997 674.87440982 239.32096473 678.30417025 233.87451172 681.87670898 C226.0303333 687 226.0303333 687 222 687 C222 687.66 222 688.32 222 689 C216.4455967 691.64285576 210.88720467 694.27711079 205.32421875 696.90185547 C203.47470891 697.77571001 201.62756498 698.65457156 199.78125 699.53515625 C193.78428066 702.34397773 187.67296979 704.57305955 181.41796875 706.7421875 C178.28775111 707.89410759 175.32159491 709.19128003 172.3125 710.625 C167.80750776 712.74499635 163.36083543 714.11147365 158.5390625 715.3203125 C156.32320232 715.91348123 154.30322701 716.62669991 152.1875 717.5 C147.257929 719.45945291 142.06685766 720.32827622 136.87890625 721.3515625 C134.11784038 721.70400938 134.11784038 721.70400938 133 723 C130.66666667 723.33333333 128.33333333 723.66666667 126 724 C125.67 724.33 125.34 724.66 125 725 C122.9427083 725.31923492 120.88386479 725.51161352 118.8125 725.71875 C116.9832467 725.81998043 116.9832467 725.81998043 116 727 C113.42102306 727.32237212 110.84068179 727.51267304 108.25 727.71875 C106.03334648 727.76200665 106.03334648 727.76200665 105 729 C101.63890715 729.32526705 98.2766601 729.5135946 94.90625 729.71875 C92.10949868 729.6785989 92.10949868 729.6785989 91 731 C88.65012738 731.23527773 86.29443961 731.41386417 83.9375 731.5625 C82.64714844 731.64628906 81.35679687 731.73007812 80.02734375 731.81640625 C79.02832031 731.87699219 78.02929688 731.93757812 77 732 C77 732.66 77 733.32 77 734 C56.21 734 35.42 734 14 734 C14 733.34 14 732.68 14 732 C13.01257813 731.93941406 12.02515625 731.87882813 11.0078125 731.81640625 C9.72648437 731.73261719 8.44515625 731.64882813 7.125 731.5625 C5.84882813 731.48128906 4.57265625 731.40007813 3.2578125 731.31640625 C0 731 0 731 -2 730 C-4.85207778 729.68744353 -7.70496854 729.48962518 -10.56640625 729.28125 C-13 729 -13 729 -14 728 C-15.82906235 727.79162581 -17.66388134 727.63250341 -19.5 727.5 C-24.88888889 727.11111111 -24.88888889 727.11111111 -26 726 C-28.83134222 725.46181098 -31.65644334 724.9639729 -34.5 724.5 C-42.86486486 723.13513514 -42.86486486 723.13513514 -44 722 C-45.010625 721.87625 -46.02125 721.7525 -47.0625 721.625 C-50.56032216 721.06979013 -53.42276751 720.13286529 -56.69140625 718.8203125 C-59.46581248 717.83448288 -62.25912082 717.17307422 -65.125 716.5 C-69.47608959 715.4557385 -73.0257944 714.07349858 -77 712 C-78.55524576 711.51762431 -80.11888676 711.0619533 -81.6875 710.625 C-86.39741728 709.27529236 -90.66939772 707.40039658 -95.09375 705.3125 C-98.12640781 703.9429126 -101.19099535 702.77662308 -104.3125 701.625 C-114.53157873 697.75799393 -124.09536531 692.56437721 -133.64453125 687.2890625 C-136.39636511 685.78308377 -139.17952055 684.37212514 -142 683 C-142 682.34 -142 681.68 -142 681 C-142.58265625 680.87367188 -143.1653125 680.74734375 -143.765625 680.6171875 C-156.0732867 677.21751871 -167.83400317 666.41372737 -178 658.9375 C-178.969375 658.22464844 -179.93875 657.51179687 -180.9375 656.77734375 C-181.9584375 655.89755859 -181.9584375 655.89755859 -183 655 C-183 654.34 -183 653.68 -183 653 C-183.99 653 -184.98 653 -186 653 C-186 652.34 -186 651.68 -186 651 C-187.65 650.34 -189.3 649.68 -191 649 C-191 648.34 -191 647.68 -191 647 C-191.66 647 -192.32 647 -193 647 C-193 646.34 -193 645.68 -193 645 C-193.99 645 -194.98 645 -196 645 C-196 644.34 -196 643.68 -196 643 C-196.556875 642.7525 -197.11375 642.505 -197.6875 642.25 C-200.42410913 640.77075182 -202.67650869 639.06532561 -205 637 C-205 636.34 -205 635.68 -205 635 C-205.66 635 -206.32 635 -207 635 C-207 634.34 -207 633.68 -207 633 C-207.66 633 -208.32 633 -209 633 C-209 632.34 -209 631.68 -209 631 C-209.66 631 -210.32 631 -211 631 C-211 630.34 -211 629.68 -211 629 C-211.66 629 -212.32 629 -213 629 C-213 628.34 -213 627.68 -213 627 C-213.66 627 -214.32 627 -215 627 C-215 626.34 -215 625.68 -215 625 C-215.66 625 -216.32 625 -217 625 C-217 624.34 -217 623.68 -217 623 C-217.66 623 -218.32 623 -219 623 C-219 622.34 -219 621.68 -219 621 C-219.66 621 -220.32 621 -221 621 C-221 620.34 -221 619.68 -221 619 C-221.66 619 -222.32 619 -223 619 C-223 618.34 -223 617.68 -223 617 C-223.66 617 -224.32 617 -225 617 C-226.9453125 614.8828125 -226.9453125 614.8828125 -229.125 612.125 C-230.21167969 610.76761719 -230.21167969 610.76761719 -231.3203125 609.3828125 C-233 607 -233 607 -233 605 C-233.66 605 -234.32 605 -235 605 C-235 604.34 -235 603.68 -235 603 C-235.66 603 -236.32 603 -237 603 C-238.5078125 601.3203125 -238.5078125 601.3203125 -240.125 599.125 C-240.66382813 598.40570312 -241.20265625 597.68640625 -241.7578125 596.9453125 C-243 595 -243 595 -243 593 C-243.66 593 -244.32 593 -245 593 C-246.3046875 591.41015625 -246.3046875 591.41015625 -247.875 589.0625 C-248.79539063 587.70511719 -248.79539063 587.70511719 -249.734375 586.3203125 C-250.2612793 585.54155762 -250.2612793 585.54155762 -250.79882812 584.74707031 C-252.15894987 582.76881194 -253.55310412 580.81740766 -254.953125 578.8671875 C-255.73647217 577.77265259 -255.73647217 577.77265259 -256.53564453 576.65600586 C-257.57014084 575.21200157 -258.60743439 573.7699958 -259.64794922 572.33032227 C-262.71111828 568.03070466 -265.38073917 563.64983354 -267.89208984 559.00708008 C-269.21255828 556.61493133 -270.70620831 554.37831211 -272.25 552.125 C-275.96336676 546.37735406 -278.79433632 540.32240844 -281.65429688 534.12280273 C-283.85577885 529.36280357 -286.17711249 524.75717195 -288.75 520.1875 C-291.77827028 514.70577 -293.90384113 509.13375038 -295.859375 503.19140625 C-296.94862191 499.93655384 -296.94862191 499.93655384 -298.62890625 496.76953125 C-300.06220014 493.87435926 -300.28040888 492.17796729 -300 489 C-300.66 489 -301.32 489 -302 489 C-302.18175781 488.21496094 -302.36351562 487.42992187 -302.55078125 486.62109375 C-304.13680677 479.75576008 -304.13680677 479.75576008 -306.625 473.1875 C-308.10404759 469.75879878 -308.55726349 466.68947088 -309 463 C-309.33 462.67 -309.66 462.34 -310 462 C-310.04092937 459.66702567 -310.04241723 457.33294775 -310 455 C-310.66 455 -311.32 455 -312 455 C-312.22786458 452.94921875 -312.45572917 450.8984375 -312.68359375 448.84765625 C-312.81886614 446.98859771 -312.81886614 446.98859771 -314 446 C-314.07179964 444.48071962 -314.08392007 442.95832518 -314.0625 441.4375 C-314.05347656 440.61121094 -314.04445313 439.78492188 -314.03515625 438.93359375 C-314.02355469 438.29550781 -314.01195312 437.65742187 -314 437 C-314.66 437 -315.32 437 -316 437 C-316.06058594 436.30132813 -316.12117187 435.60265625 -316.18359375 434.8828125 C-316.26738281 433.97273438 -316.35117187 433.06265625 -316.4375 432.125 C-316.55931641 430.76761719 -316.55931641 430.76761719 -316.68359375 429.3828125 C-316.86989285 426.98889139 -316.86989285 426.98889139 -318 425 C-318.27699719 421.65844662 -318.44700704 418.31714126 -318.62109375 414.96875 C-318.70697327 411.88509744 -318.70697327 411.88509744 -321 410 C-321.19863343 407.20948909 -321.27269851 404.51820952 -321.25878906 401.7265625 C-321.2622937 400.87116882 -321.26579834 400.01577515 -321.26940918 399.13446045 C-321.27823477 396.29789186 -321.27237445 393.46157127 -321.265625 390.625 C-321.26697141 388.65966748 -321.26891174 386.69433528 -321.27142334 384.72900391 C-321.27437572 380.60641311 -321.27007328 376.48390887 -321.26074219 372.36132812 C-321.2493476 367.0681367 -321.25590646 361.77514809 -321.26788712 356.48196411 C-321.27510263 352.42259178 -321.27281921 348.3632678 -321.26763153 344.30389404 C-321.26629418 342.35178605 -321.26794573 340.39967372 -321.27259064 338.4475708 C-321.2776508 335.72274085 -321.26995288 332.99824264 -321.25878906 330.2734375 C-321.26486176 329.05463898 -321.26486176 329.05463898 -321.27105713 327.81121826 C-321.22852813 322.22852813 -321.22852813 322.22852813 -319 320 C-318.57277047 316.91082291 -318.57277047 316.91082291 -318.4375 313.4375 C-318.09722222 307.09722222 -318.09722222 307.09722222 -317 306 C-316.79162581 304.17093765 -316.63250341 302.33611866 -316.5 300.5 C-316.11111111 295.11111111 -316.11111111 295.11111111 -315 294 C-314.43655256 291.14772981 -313.91865055 288.30368392 -313.4375 285.4375 C-313.29892578 284.63119141 -313.16035156 283.82488281 -313.01757812 282.99414062 C-312.67482237 280.99670189 -312.33695612 278.99842528 -312 277 C-311.34 277 -310.68 277 -310 277 C-310.061875 276.01 -310.12375 275.02 -310.1875 274 C-310.1875 270.41503513 -309.22955169 267.62671966 -307.859375 264.3046875 C-306.46892496 260.5757533 -305.62594398 256.72003842 -304.6953125 252.85546875 C-303.88774855 249.5390123 -302.96699763 246.27291504 -302 243 C-301.34 243 -300.68 243 -300 243 C-300.04125 242.278125 -300.0825 241.55625 -300.125 240.8125 C-299.99078695 237.79270631 -299.24829381 235.73064271 -298 233 C-297.34 233 -296.68 233 -296 233 C-296.04125 232.278125 -296.0825 231.55625 -296.125 230.8125 C-295.99078695 227.79270631 -295.24829381 225.73064271 -294 223 C-293.34 223 -292.68 223 -292 223 C-291.87431641 221.78570312 -291.87431641 221.78570312 -291.74609375 220.546875 C-290.80530327 216.07442603 -289.0530317 212.34400435 -287.0625 208.25 C-286.66571045 207.4237915 -286.2689209 206.59758301 -285.86010742 205.74633789 C-281.5895729 196.96935996 -276.87823528 188.45127161 -272 180 C-271.40960938 178.97648438 -270.81921875 177.95296875 -270.2109375 176.8984375 C-267.70956019 172.65250986 -265.06019075 168.6075693 -262.14453125 164.63671875 C-260.63925333 162.48411995 -259.38452966 160.20202457 -258.10546875 157.91015625 C-256.75892321 155.58343974 -255.33424066 153.32025976 -253.875 151.0625 C-253.37742187 150.29035156 -252.87984375 149.51820313 -252.3671875 148.72265625 C-251.69042969 147.86994141 -251.69042969 147.86994141 -251 147 C-250.34 147 -249.68 147 -249 147 C-248.71125 146.4225 -248.4225 145.845 -248.125 145.25 C-247.08333333 143.16666667 -246.04166667 141.08333333 -245 139 C-244.34 139 -243.68 139 -243 139 C-242.62875 138.195625 -242.62875 138.195625 -242.25 137.375 C-240.69347463 134.4176018 -238.96564327 131.70275949 -237 129 C-236.34 129 -235.68 129 -235 129 C-235 128.34 -235 127.68 -235 127 C-234.34 127 -233.68 127 -233 127 C-232.79375 126.319375 -232.5875 125.63875 -232.375 124.9375 C-230.57104973 121.08360625 -228.0989655 117.92212236 -225 115 C-224.34 115 -223.68 115 -223 115 C-223 114.34 -223 113.68 -223 113 C-222.34 113 -221.68 113 -221 113 C-221 112.34 -221 111.68 -221 111 C-220.34 111 -219.68 111 -219 111 C-219 110.34 -219 109.68 -219 109 C-218.34 109 -217.68 109 -217 109 C-217 108.34 -217 107.68 -217 107 C-216.34 107 -215.68 107 -215 107 C-215 106.34 -215 105.68 -215 105 C-214.34 105 -213.68 105 -213 105 C-213 104.34 -213 103.68 -213 103 C-212.34 103 -211.68 103 -211 103 C-211 102.34 -211 101.68 -211 101 C-210.34 101 -209.68 101 -209 101 C-209 100.34 -209 99.68 -209 99 C-208.34 99 -207.68 99 -207 99 C-207 98.34 -207 97.68 -207 97 C-206.34 97 -205.68 97 -205 97 C-205 96.34 -205 95.68 -205 95 C-203.5390625 93.4921875 -203.5390625 93.4921875 -201.625 91.875 C-200.99851562 91.33617187 -200.37203125 90.79734375 -199.7265625 90.2421875 C-198 89 -198 89 -196 89 C-196 88.34 -196 87.68 -196 87 C-195.01 87 -194.02 87 -193 87 C-193 86.34 -193 85.68 -193 85 C-192.34 85 -191.68 85 -191 85 C-191 84.34 -191 83.68 -191 83 C-188.525 82.01 -188.525 82.01 -186 81 C-186 80.34 -186 79.68 -186 79 C-185.01 79 -184.02 79 -183 79 C-183 78.34 -183 77.68 -183 77 C-182.34 77 -181.68 77 -181 77 C-181 76.34 -181 75.68 -181 75 C-179.1015625 73.4921875 -179.1015625 73.4921875 -176.625 71.875 C-175.81289063 71.33617187 -175.00078125 70.79734375 -174.1640625 70.2421875 C-172 69 -172 69 -170 69 C-170 68.34 -170 67.68 -170 67 C-169.01 67 -168.02 67 -167 67 C-167 66.34 -167 65.68 -167 65 C-161.04194026 60.43316233 -154.51514869 56.57083456 -147.90234375 53.03125 C-146.27311142 52.14805219 -144.69268899 51.17582566 -143.125 50.1875 C-141 49 -141 49 -138 49 C-138 48.34 -138 47.68 -138 47 C-136.71029297 46.36384766 -136.71029297 46.36384766 -135.39453125 45.71484375 C-128.12573066 42.10818697 -120.94761136 38.3973596 -113.83984375 34.48046875 C-109.59706689 32.26862222 -106.84038431 31 -102 31 C-102 30.34 -102 29.68 -102 29 C-100.69289063 28.54560547 -100.69289063 28.54560547 -99.359375 28.08203125 C-93.46122428 26.00746525 -87.62772489 23.89423397 -81.875 21.4375 C-65.89285074 14.68568293 -65.89285074 14.68568293 -58 15 C-58 14.34 -58 13.68 -58 13 C-56.50146484 12.69255859 -56.50146484 12.69255859 -54.97265625 12.37890625 C-53.68230469 12.10949219 -52.39195312 11.84007812 -51.0625 11.5625 C-49.77472656 11.29566406 -48.48695313 11.02882812 -47.16015625 10.75390625 C-44.15361121 10.32818384 -44.15361121 10.32818384 -43 9 C-40.9427083 8.68076508 -38.88386479 8.48838648 -36.8125 8.28125 C-34.9832467 8.18001957 -34.9832467 8.18001957 -34 7 C-31.9427083 6.68076508 -29.88386479 6.48838648 -27.8125 6.28125 C-25.9832467 6.18001957 -25.9832467 6.18001957 -25 5 C-23.52603261 4.79231771 -22.0450874 4.63283983 -20.5625 4.5 C-17.15502495 4.20853056 -17.15502495 4.20853056 -14 3 C-11.62597499 2.92883618 -9.24999323 2.91590915 -6.875 2.9375 C-5.59367187 2.94652344 -4.31234375 2.95554688 -2.9921875 2.96484375 C-1.51105469 2.98224609 -1.51105469 2.98224609 0 3 C0 2.01 0 1.02 0 0 Z " fill="#000000" transform="translate(455,134)"/>
<path d="M0 0 C186 0 186 0 206 2 C206 2.66 206 3.32 206 4 C206.87140625 4.03738281 207.7428125 4.07476562 208.640625 4.11328125 C223.76922479 4.94830137 237.60106234 9.59700141 252 14 C252 14.66 252 15.32 252 16 C252.825 16.0825 253.65 16.165 254.5 16.25 C258.10102662 17.02164856 260.69691886 18.25104498 263.91796875 19.95703125 C265.97560729 20.98778076 268.02081609 21.79130742 270.1875 22.5625 C273.39328107 23.71633171 276.09238944 25.21070119 279 27 C281.31106075 28.06328215 283.64681645 29.03104207 286 30 C286 30.66 286 31.32 286 32 C286.66 32 287.32 32 288 32 C288 32.66 288 33.32 288 34 C288.845625 34.226875 289.69125 34.45375 290.5625 34.6875 C294.04984692 36.01903246 296.46696362 37.61693504 299.38671875 39.87890625 C301.12217901 41.19722062 301.12217901 41.19722062 304 42 C305.1752514 43.44388029 306.34821741 44.88971302 307.5065918 46.34716797 C309.07646708 48.08463007 310.66408992 49.29443754 312.58203125 50.6328125 C317.66841149 54.37281505 322.05237618 58.72176696 326.5 63.1875 C327.32242187 63.99380859 328.14484375 64.80011719 328.9921875 65.63085938 C329.76820313 66.40623047 330.54421875 67.18160156 331.34375 67.98046875 C332.04693359 68.68067139 332.75011719 69.38087402 333.47460938 70.10229492 C335 72 335 72 335 75 C335.556875 75.226875 336.11375 75.45375 336.6875 75.6875 C342.38291856 78.92003486 344.62882192 83.0720548 347 89 C347.53625 89.680625 348.0725 90.36125 348.625 91.0625 C350.43692332 93.61566467 350.65094561 95.92832135 351 99 C351.66 99 352.32 99 353 99 C358.7930016 106.88325991 362.12705152 115.8970895 365.3034668 125.05078125 C366.04332375 127.12123967 366.85221066 129.15839201 367.66015625 131.203125 C369.22646709 135.35632931 369.23659404 138.58357793 369 143 C369.66 143 370.32 143 371 143 C373.48814288 151.98059155 375.06573353 160.94296922 376.1875 170.1875 C376.31732269 171.2447377 376.31732269 171.2447377 376.44976807 172.32333374 C379.17493898 195.06201494 379.27535753 218.31179282 376 241 C375.89284668 241.77327637 375.78569336 242.54655273 375.67529297 243.34326172 C373.72562377 257.12716753 370.43560114 270.1483849 365 283 C364.28895347 284.79059163 363.58059939 286.58225488 362.875 288.375 C361.96885605 290.67405945 361.05671854 292.89026195 359.921875 295.0859375 C358.6848829 297.65426856 358.38294163 300.19176136 358 303 C357.34 303 356.68 303 356 303 C355.67 304.32 355.34 305.64 355 307 C354.34 307 353.68 307 353 307 C352.731875 307.86625 352.46375 308.7325 352.1875 309.625 C351.02888013 312.91791964 349.61790161 315.91127875 348 319 C347.34 319 346.68 319 346 319 C345.731875 319.721875 345.46375 320.44375 345.1875 321.1875 C344.00098638 323.99766383 342.72514361 326.48416557 341 329 C340.34 329 339.68 329 339 329 C338.79375 329.845625 338.5875 330.69125 338.375 331.5625 C335.72844366 338.17889085 330.63932147 342.43796715 325.29296875 346.95703125 C321.92585772 349.95702967 318.80043896 353.18926513 315.6809082 356.44433594 C314.49000788 357.66579408 313.24859741 358.83758524 312 360 C311.34 360 310.68 360 310 360 C310 360.66 310 361.32 310 362 C308.67873952 362.93879034 307.34625301 363.86386362 305.9765625 364.73046875 C303.60269032 366.25518902 301.30539714 367.8736851 299 369.5 C297.33356918 370.66700351 295.66692089 371.83369659 294 373 C293.3709375 373.44214844 292.741875 373.88429688 292.09375 374.33984375 C288.23131673 377 288.23131673 377 286 377 C286 377.66 286 378.32 286 379 C283.30155924 381.38279746 280.60357131 382.69326096 277.25 383.9375 C273.25826237 385.46236732 269.52647057 387.19812266 265.7890625 389.265625 C264 390 264 390 260 390 C260 390.66 260 391.32 260 392 C256.38026598 393.31626692 253.90432869 394 250 394 C250 394.66 250 395.32 250 396 C244.40075495 398.45413719 239.04526083 400.37370787 233.0234375 401.4375 C228.3001929 402.31624318 223.62740545 403.42096807 218.94726562 404.50390625 C152.19586987 419.62866497 53.97694762 410 0 410 C0 274.7 0 139.4 0 0 Z " fill="#F6F6F6" transform="translate(323,290)"/>
<path d="M0 0 C89 0 89 0 101 3 C101 3.66 101 4.32 101 5 C102.2375 4.9071875 102.2375 4.9071875 103.5 4.8125 C107.18804512 5.01007385 109.66059498 5.89143487 113.03125 7.265625 C115.64035721 8.2388634 118.24462982 8.65557873 121 9 C121 9.66 121 10.32 121 11 C121.86625 11.103125 122.7325 11.20625 123.625 11.3125 C127.16683123 12.03398414 129.84312042 13.27123261 133 15 C133 15.66 133 16.32 133 17 C134.36125 17.433125 134.36125 17.433125 135.75 17.875 C138.32202908 18.76531776 140.61346766 19.71494413 143 21 C143 21.66 143 22.32 143 23 C143.969375 23.268125 144.93875 23.53625 145.9375 23.8125 C146.948125 24.204375 147.95875 24.59625 149 25 C149.33 25.99 149.66 26.98 150 28 C150.99 28.33 151.98 28.66 153 29 C154.61328125 30.63671875 154.61328125 30.63671875 156.3125 32.6875 C158.52427337 35.31076609 160.75060457 37.77519432 163.25 40.125 C165.99612575 42.99594964 167.33151854 45.43551689 169 49 C169.66 49.825 170.32 50.65 171 51.5 C173.45625366 54.57031707 176 57.9455607 176 62 C176.66 62 177.32 62 178 62 C178.63032133 63.20556604 179.2539497 64.41463189 179.875 65.625 C180.39707031 66.63433594 180.39707031 66.63433594 180.9296875 67.6640625 C183.78798837 73.90225198 184.62330507 79.99708678 185.4375 86.7578125 C185.80859692 89.85870221 185.80859692 89.85870221 186.96630859 91.87304688 C191.23608044 100.65865206 190.39900706 112.10416569 190.375 121.625 C190.37545319 122.32633057 190.37590637 123.02766113 190.37637329 123.75024414 C190.35066271 137.32079046 188.6618474 149.44557884 183.67700195 162.12304688 C182.97794169 164.06115552 182.46721016 165.99457741 182 168 C181.34 168 180.68 168 180 168 C179.79697266 168.87398437 179.79697266 168.87398437 179.58984375 169.765625 C177.60901533 177.30937876 174.1415342 183.43372141 170 190 C169.21882813 191.28003906 169.21882813 191.28003906 168.421875 192.5859375 C165.41198704 197.3542337 162.46713692 200.57836321 158 204 C155.54987113 206.39179247 153.1653066 208.82524731 150.8125 211.3125 C149 213 149 213 147 213 C147 213.66 147 214.32 147 215 C144.8828125 216.5078125 144.8828125 216.5078125 142.125 218.125 C141.22007812 218.66382813 140.31515625 219.20265625 139.3828125 219.7578125 C137 221 137 221 135 221 C135 221.66 135 222.32 135 223 C131.69017694 224.44371847 128.37667475 225.87880267 125.0625 227.3125 C124.13630859 227.71662109 123.21011719 228.12074219 122.25585938 228.53710938 C110.78174011 233.48909769 99.6437729 237.46828789 87 237 C87 237.66 87 238.32 87 239 C61.05989806 251.97005097 29.00191565 240 0 240 C0 160.8 0 81.6 0 0 Z " fill="#000000" transform="translate(416,375)"/>
<path d="M0 0 C0.70953188 -0.00155999 1.41906375 -0.00311998 2.1500966 -0.00472724 C4.54638937 -0.00874047 6.94261963 -0.0055461 9.33891296 -0.00241089 C11.05043068 -0.00376502 12.7619481 -0.00554501 14.47346497 -0.00772095 C19.14196233 -0.01230043 23.81043771 -0.01050191 28.47893548 -0.00734186 C33.37433447 -0.00481315 38.26973155 -0.00715795 43.16513062 -0.00872803 C51.40812009 -0.01055149 59.65110063 -0.00814221 67.89408875 -0.00338745 C77.37937277 0.00202127 86.86463519 0.00031811 96.34991866 -0.00521386 C104.51154459 -0.00978111 112.67316409 -0.01037697 120.83479089 -0.00777519 C125.7002006 -0.00622773 130.56560025 -0.00597544 135.43100929 -0.00931168 C140.0266188 -0.01224184 144.62220114 -0.01012223 149.21780777 -0.00441742 C150.88807951 -0.0031155 152.5583536 -0.00343906 154.22862434 -0.00568008 C163.18579176 -0.01657107 172.12644656 0.12781134 181.07614136 0.5100708 C182.32451844 0.55560602 182.32451844 0.55560602 183.59811527 0.60206115 C188.16409748 0.82289984 191.99352603 1.42086511 196.29472351 3.12698364 C196.29472351 3.45698364 196.29472351 3.78698364 196.29472351 4.12698364 C191.01472351 3.79698364 185.73472351 3.46698364 180.29472351 3.12698364 C118.91472351 2.79698364 57.53472351 2.46698364 -5.70527649 2.12698364 C-5.70527649 137.42698364 -5.70527649 272.72698364 -5.70527649 412.12698364 C96.34647479 412.31076898 96.34647479 412.31076898 198.29472351 409.12698364 C198.29472351 409.78698364 198.29472351 410.44698364 198.29472351 411.12698364 C193.67472351 411.12698364 189.05472351 411.12698364 184.29472351 411.12698364 C184.29472351 411.78698364 184.29472351 412.44698364 184.29472351 413.12698364 C159.408689 413.15030967 134.52265612 413.16796136 109.63661289 413.17879581 C98.08246051 413.1839594 86.5283149 413.19100329 74.97416687 413.2024231 C64.90748002 413.21236802 54.84079807 413.21883661 44.77410644 413.22107214 C39.4403564 413.22237957 34.10662039 413.22546748 28.77287483 413.2327137 C23.75874692 413.23947089 18.74463893 413.24160122 13.7305069 413.24009132 C11.88454772 413.24036779 10.03858793 413.24237469 8.19263268 413.24618912 C5.68375571 413.25112168 3.17495518 413.24998356 0.66607666 413.24723816 C-0.07418162 413.250151 -0.81443991 413.25306384 -1.57713026 413.25606495 C-6.59115528 413.24110485 -6.59115528 413.24110485 -7.70527649 412.12698364 C-7.80424285 409.94916294 -7.83083393 407.76805799 -7.83111763 405.58798981 C-7.83257107 404.89321397 -7.83402451 404.19843814 -7.835522 403.4826085 C-7.83920792 401.12515396 -7.83568367 398.76776304 -7.83226013 396.41030884 C-7.83341093 394.71486518 -7.83499817 393.01942178 -7.83698738 391.3239789 C-7.8411864 386.64211533 -7.83908744 381.96027197 -7.83600116 377.27840829 C-7.83374959 372.2381401 -7.83722545 367.19787552 -7.83998108 362.15760803 C-7.8444404 352.2746745 -7.84346159 342.39174853 -7.84056844 332.50881469 C-7.83831504 324.48062253 -7.83800161 316.4524325 -7.83909225 308.42424011 C-7.83924549 307.28399086 -7.83939872 306.1437416 -7.8395566 304.96893933 C-7.8398763 302.6529396 -7.84020052 300.33693986 -7.84052919 298.02094012 C-7.84338445 276.27601347 -7.84009623 254.53109102 -7.83472882 232.78616506 C-7.83026074 214.10598659 -7.83103666 195.42581434 -7.83564758 176.74563599 C-7.84099253 155.08140507 -7.84310976 133.41717786 -7.84003532 111.75294638 C-7.83971675 109.44520664 -7.83940238 107.13746691 -7.83909225 104.82972717 C-7.83893798 103.69411355 -7.8387837 102.55849993 -7.83862475 101.38847378 C-7.83775936 93.36487253 -7.83922296 85.34127362 -7.84157181 77.31767273 C-7.84436912 67.54684137 -7.843633 57.77601806 -7.83829106 48.00518763 C-7.83565312 43.01479565 -7.83465055 38.02441709 -7.83794022 33.03402519 C-7.84090128 28.4733277 -7.83931357 23.91265619 -7.83396266 19.35196108 C-7.83283766 17.69451468 -7.83343148 16.03706612 -7.83583845 14.37962109 C-7.83884123 12.14170784 -7.83579924 9.90388581 -7.83111763 7.66597748 C-7.83095528 6.41837883 -7.83079293 5.17078017 -7.83062565 3.8853755 C-7.59296153 -1.34458184 -4.59070335 0.00135393 0 0 Z " fill="#1E1E1E" transform="translate(328.7052764892578,287.8730163574219)"/>
<path d="M0 0 C0.33 0 0.66 0 1 0 C1 135.3 1 270.6 1 410 C103.05175128 410.18378534 103.05175128 410.18378534 205 407 C205 407.66 205 408.32 205 409 C200.38 409 195.76 409 191 409 C191 409.66 191 410.32 191 411 C127.97 411 64.94 411 0 411 C0 275.37 0 139.74 0 0 Z " fill="#656565" transform="translate(322,290)"/>
<path d="M0 0 C89 0 89 0 101 3 C101 3.66 101 4.32 101 5 C102.98 5 104.96 5 107 5 C107 5.33 107 5.66 107 6 C104.66705225 6.04241723 102.33297433 6.04092937 100 6 C99.505 5.505 99.505 5.505 99 5 C97.36197128 4.63021574 95.71412956 4.30331217 94.0625 4 C89.21412301 3.1070615 89.21412301 3.1070615 87 2 C58.62 1.67 30.24 1.34 1 1 C1 79.21 1 157.42 1 238 C45.45420871 246.38006276 45.45420871 246.38006276 82 236 C84.18639453 235.92741054 86.37500389 235.91626217 88.5625 235.9375 C90.35880859 235.95103516 90.35880859 235.95103516 92.19140625 235.96484375 C93.11824219 235.97644531 94.04507813 235.98804688 95 236 C95 236.33 95 236.66 95 237 C92.36 237 89.72 237 87 237 C87 237.66 87 238.32 87 239 C61.05989806 251.97005097 29.00191565 240 0 240 C0 160.8 0 81.6 0 0 Z " fill="#585858" transform="translate(416,375)"/>
<path d="M0 0 C0 0.66 0 1.32 0 2 C-4.62 2 -9.24 2 -14 2 C-14 2.66 -14 3.32 -14 4 C-77.03 4 -140.06 4 -205 4 C-205 3.67 -205 3.34 -205 3 C-204.15851662 2.99668985 -203.31703323 2.99337971 -202.45005035 2.98996925 C-181.8177778 2.9081612 -161.18557409 2.81588964 -140.55339813 2.71247292 C-130.57516455 2.66270114 -120.59693776 2.61625969 -110.61865234 2.578125 C-101.90486039 2.54481395 -93.19112743 2.50477944 -84.47740126 2.45720994 C-79.87876197 2.43232585 -75.28015984 2.41044095 -70.68147278 2.39665604 C-49.3040787 2.33021804 -28.07569241 1.80242291 -6.75534821 0.17702293 C-4.50742703 0.03260068 -2.25255575 0 0 0 Z " fill="#444444" transform="translate(527,697)"/>
<path d="M0 0 C25.45159303 -0.04670731 50.90317965 -0.08198263 76.3548069 -0.10362434 C88.17226214 -0.11393976 99.98969075 -0.12800519 111.80712891 -0.15087891 C122.10642272 -0.17080463 132.40569726 -0.18371451 142.70500982 -0.18817699 C148.15910374 -0.19078574 153.61314252 -0.19692304 159.06721878 -0.21146011 C164.20039007 -0.22503106 169.33348346 -0.2292236 174.46667099 -0.22621536 C176.3508471 -0.22676574 178.2350258 -0.23074607 180.1191864 -0.23841095 C182.69207161 -0.24836452 185.26466289 -0.24596735 187.83755493 -0.24050903 C188.58270375 -0.24633472 189.32785257 -0.2521604 190.09558165 -0.25816262 C194.43901733 -0.23326527 197.96120771 0.40227869 202 2 C202 2.33 202 2.66 202 3 C201.06416077 2.93019456 200.12832153 2.86038912 199.16412354 2.78846836 C188.46912254 2.04842712 177.82737273 1.83083042 167.109375 1.79467773 C165.27452386 1.78507145 163.4396748 1.7750599 161.60482788 1.76467896 C156.67619399 1.73792118 151.74755081 1.71675619 146.8188858 1.69667697 C141.648609 1.67463514 136.47835986 1.64733648 131.30810547 1.62062073 C121.54092976 1.57093755 111.77373849 1.52590951 102.00653267 1.48259836 C90.87697175 1.43301609 79.74743862 1.37817659 68.61790466 1.32291877 C45.74529576 1.20947349 22.87266015 1.10255461 0 1 C0 0.67 0 0.34 0 0 Z " fill="#757575" transform="translate(323,289)"/>
<path d="M0 0 C2.29823659 2.29823659 2.29690384 2.94880882 2.5625 6.0625 C2.55913448 9.76736617 2.55913448 9.76736617 4 11 C7.03165092 38.95855847 5.88878357 68.22001953 2 96 C1.34 96 0.68 96 0 96 C0.04125 97.27875 0.0825 98.5575 0.125 99.875 C0.1953125 102.0546875 0.1953125 102.0546875 0 104 C-0.99 104.99 -0.99 104.99 -2 106 C-1.54862464 98.79355893 -0.52571872 91.78951732 0.89575195 84.71899414 C3.1799367 72.75125482 3.23134881 60.4578331 3.25 48.3125 C3.25233643 47.6083194 3.25467285 46.90413879 3.25708008 46.17861938 C3.27366561 32.77958156 2.12945227 19.68805782 0.27539062 6.40893555 C0 4 0 4 0 0 Z " fill="#6E6E6E" transform="translate(697,447)"/>
<path d="M0 0 C11.39687062 -0.06976062 22.79368975 -0.12294303 34.19073105 -0.15543652 C39.48383928 -0.17103815 44.77680054 -0.19217511 50.06982422 -0.22631836 C55.1856555 -0.25910903 60.30134614 -0.27689431 65.41727448 -0.28463173 C67.36113954 -0.29014005 69.30499761 -0.30089569 71.24880219 -0.31719017 C81.60308721 -0.4004717 91.09031169 -0.37018249 101 3 C101 3.66 101 4.32 101 5 C102.98 5 104.96 5 107 5 C107 5.33 107 5.66 107 6 C104.66705225 6.04241723 102.33297433 6.04092937 100 6 C99.505 5.505 99.505 5.505 99 5 C97.36197128 4.63021574 95.71412956 4.30331217 94.0625 4 C89.21412301 3.1070615 89.21412301 3.1070615 87 2 C84.25370457 1.9067964 81.53296833 1.87422906 78.78662109 1.88647461 C77.9377684 1.88632858 77.08891571 1.88618256 76.21434021 1.8860321 C73.40068023 1.88673034 70.58708596 1.8945186 67.7734375 1.90234375 C65.82573482 1.90420825 63.87803168 1.905632 61.93032837 1.90663147 C56.79779776 1.91045417 51.66529533 1.92028235 46.53277588 1.93133545 C41.29789613 1.94155488 36.06301184 1.94613023 30.828125 1.95117188 C20.55207093 1.96190483 10.27603781 1.9789783 0 2 C0 1.34 0 0.68 0 0 Z " fill="#575757" transform="translate(416,375)"/>
<path d="M0 0 C1.79244141 0.01740234 1.79244141 0.01740234 3.62109375 0.03515625 C5.41740234 0.04869141 5.41740234 0.04869141 7.25 0.0625 C8.17683594 0.07410156 9.10367188 0.08570313 10.05859375 0.09765625 C10.05859375 0.42765625 10.05859375 0.75765625 10.05859375 1.09765625 C-0.33003662 3.38811535 -10.4809219 3.35726518 -21.05078125 3.29296875 C-22.87208906 3.28923073 -24.69339891 3.28638749 -26.51470947 3.28439331 C-31.26901976 3.27681894 -36.02320454 3.25722493 -40.77746582 3.23498535 C-45.64459537 3.21439216 -50.51174553 3.205363 -55.37890625 3.1953125 C-64.89979421 3.17397217 -74.42058972 3.13991265 -83.94140625 3.09765625 C-83.94140625 2.76765625 -83.94140625 2.43765625 -83.94140625 2.09765625 C-82.94138077 2.08734879 -81.94135529 2.07704132 -80.911026 2.06642151 C-71.50765852 1.96885821 -62.10435975 1.86614079 -52.70110416 1.75831699 C-47.86627088 1.70304498 -43.0314316 1.64961828 -38.1965332 1.6003418 C-33.53458141 1.55276118 -28.87270558 1.50042092 -24.21084404 1.4447155 C-22.4281852 1.42426329 -20.6455055 1.40555505 -18.86281013 1.38858223 C-16.37469024 1.36460139 -13.88671527 1.33453865 -11.39868164 1.30297852 C-10.65421783 1.29722305 -9.90975403 1.29146759 -9.14273071 1.28553772 C-5.63164019 1.23458283 -3.27286921 0.108661 0 0 Z " fill="#323232" transform="translate(500.94140625,610.90234375)"/>
<path d="M0 0 C2.29823659 2.29823659 2.29690384 2.94880882 2.5625 6.0625 C2.55913448 9.76736617 2.55913448 9.76736617 4 11 C4.15825258 12.99782126 4.25119171 15.00088834 4.31640625 17.00390625 C4.35830078 18.21884766 4.40019531 19.43378906 4.44335938 20.68554688 C4.48267578 21.96494141 4.52199219 23.24433594 4.5625 24.5625 C4.60568359 25.84576172 4.64886719 27.12902344 4.69335938 28.45117188 C4.799848 31.63399853 4.90185962 34.81690674 5 38 C4.67 38 4.34 38 4 38 C3.42735022 33.2314722 2.85777156 28.46259128 2.29101562 23.69335938 C2.09784621 22.07151419 1.9038431 20.44976808 1.70898438 18.828125 C1.42878645 16.49504838 1.15160446 14.16163004 0.875 11.828125 C0.74375732 10.74352997 0.74375732 10.74352997 0.60986328 9.63702393 C0.22724709 6.38622979 0 3.28045809 0 0 Z " fill="#505050" transform="translate(697,447)"/>
<path d="M0 0 C0 0.66 0 1.32 0 2 C-4.62 2 -9.24 2 -14 2 C-14 2.66 -14 3.32 -14 4 C-20.27 4 -26.54 4 -33 4 C-33 3.67 -33 3.34 -33 3 C-31.41058594 2.90912109 -31.41058594 2.90912109 -29.7890625 2.81640625 C-28.40102779 2.73199873 -27.01300768 2.64735083 -25.625 2.5625 C-24.92632812 2.52318359 -24.22765625 2.48386719 -23.5078125 2.44335938 C-19.62639508 2.25719866 -19.62639508 2.25719866 -16 1 C-14.0462832 0.76931332 -12.08648013 0.58856754 -10.125 0.4375 C-9.07570313 0.35371094 -8.02640625 0.26992188 -6.9453125 0.18359375 C-4.63388585 0.03951278 -2.31591288 0 0 0 Z " fill="#383838" transform="translate(527,697)"/>
<path d="M0 0 C2.87525669 -0.05425013 5.74947646 -0.09379277 8.625 -0.125 C9.43324219 -0.14175781 10.24148438 -0.15851563 11.07421875 -0.17578125 C15.80093815 -0.21420986 19.55387702 0.17262906 24 2 C24 2.33 24 2.66 24 3 C7.1070615 2.03644647 7.1070615 2.03644647 0 1 C0 0.67 0 0.34 0 0 Z " fill="#424242" transform="translate(501,289)"/>
<path d="M0 0 C-1 1 -1 1 -3.5625 1.0625 C-4.7690625 1.0315625 -4.7690625 1.0315625 -6 1 C-6 1.66 -6 2.32 -6 3 C-10.62 3 -15.24 3 -20 3 C-20 2.67 -20 2.34 -20 2 C-17.04287371 1.47130166 -14.0846444 0.9517326 -11.125 0.4375 C-10.28324219 0.28603516 -9.44148437 0.13457031 -8.57421875 -0.02148438 C-7.76855469 -0.16005859 -6.96289062 -0.29863281 -6.1328125 -0.44140625 C-5.38918457 -0.57232666 -4.64555664 -0.70324707 -3.87939453 -0.83813477 C-2 -1 -2 -1 0 0 Z " fill="#A7A7A7" transform="translate(523,610)"/>
<path d="M0 0 C2.41346327 4.1373656 4.5081809 9.45467653 3.55078125 14.25 C3.36902344 14.8275 3.18726563 15.405 3 16 C1.64560332 13.29120665 1.93498549 10.99066732 2 8 C1.34 8 0.68 8 0 8 C0 5.36 0 2.72 0 0 Z " fill="#A5A5A5" transform="translate(693,433)"/>
<path d="M0 0 C0.66 0 1.32 0 2 0 C2 1.98 2 3.96 2 6 C2.66 6 3.32 6 4 6 C4 8.31 4 10.62 4 13 C3.67 11.68 3.34 10.36 3 9 C2.34 9 1.68 9 1 9 C0.67 6.03 0.34 3.06 0 0 Z " fill="#414141" transform="translate(691,424)"/>
</svg>
